<svg xmlns="http://www.w3.org/2000/svg" width="60" height="60" viewBox="0 0 60 60">
  <g id="Grupo_121053" data-name="Grupo 121053" transform="translate(8492 8571)">
    <g id="subasta" transform="translate(-8493 -8572)">
      <path id="Trazado_113682" data-name="Trazado 113682" d="M60.716,47.251,49.546,36.081l.809-.809.284.284a.967.967,0,0,0,1.368,0l2.9-2.9a.967.967,0,0,0,0-1.368l-5.523-5.523V7.774A6.782,6.782,0,0,0,42.613,1H5.839A4.844,4.844,0,0,0,1,5.839v7.742a.967.967,0,0,0,.968.968H8.742V56.161A4.844,4.844,0,0,0,13.581,61H48.419a4.844,4.844,0,0,0,4.839-4.839V54.226a.967.967,0,0,0-.968-.968h-2.9V43.5l7.542,7.542a.967.967,0,0,0,1.368,0l2.419-2.419A.967.967,0,0,0,60.716,47.251ZM43.58,39.309l-3.47-3.47,5.406-5.406,3.47,3.47Zm-.4,2.336L41.645,43.18l-5.406-5.406,1.535-1.535ZM51.322,33.5,45.917,28.1l1.535-1.535,5.406,5.406ZM8.742,12.613H2.935V5.839a2.9,2.9,0,0,1,5.806,0Zm42.58,43.548a2.907,2.907,0,0,1-2.9,2.9H17.45a4.813,4.813,0,0,0,.97-2.9v-.968h32.9Zm-3.871-2.9h-30a.967.967,0,0,0-.968.968v1.935a2.9,2.9,0,0,1-5.806,0V5.839a4.789,4.789,0,0,0-.993-2.9H42.613a4.844,4.844,0,0,1,4.839,4.839V24.226a.965.965,0,0,0-.684.284l-2.9,2.9a.967.967,0,0,0,0,1.368l.284.284L38.742,34.47l-.284-.284a.967.967,0,0,0-1.368,0l-2.9,2.9a.967.967,0,0,0,0,1.368l6.774,6.774a.967.967,0,0,0,1.368,0l2.9-2.9a.967.967,0,0,0,0-1.368l-.284-.284.809-.809,1.694,1.694Zm10.161-4.272L47.126,38.5l1.051-1.051L58.664,47.935Z" transform="translate(0 0)" fill="#f57c22"/>
      <path id="Trazado_113683" data-name="Trazado 113683" d="M14,19H46.113v1.946H14Z" transform="translate(-0.499 -0.584)" fill="#f57c22"/>
      <path id="Trazado_113684" data-name="Trazado 113684" d="M14,27H42.22v1.946H14Z" transform="translate(-0.481 -0.843)" fill="#f57c22"/>
      <path id="Trazado_113685" data-name="Trazado 113685" d="M14,23H46.113v1.946H14Z" transform="translate(-0.499 -0.714)" fill="#f57c22"/>
      <path id="Trazado_113686" data-name="Trazado 113686" d="M14,11H46.113v1.946H14Z" transform="translate(-0.499 -0.269)" fill="#f57c22"/>
      <path id="Trazado_113687" data-name="Trazado 113687" d="M14,7H46.113V8.946H14Z" transform="translate(-0.499 -0.161)" fill="#f57c22"/>
      <path id="Trazado_113688" data-name="Trazado 113688" d="M14,15H46.113v1.946H14Z" transform="translate(-0.499 -0.454)" fill="#f57c22"/>
      <path id="Trazado_113689" data-name="Trazado 113689" d="M14,31H40.274v1.946H14Z" transform="translate(-0.473 -0.973)" fill="#f57c22"/>
      <path id="Trazado_113690" data-name="Trazado 113690" d="M21.758,35a8.758,8.758,0,1,0,8.758,8.758A8.768,8.768,0,0,0,21.758,35Zm0,15.57a6.812,6.812,0,1,1,6.812-6.812A6.82,6.82,0,0,1,21.758,50.57Z" transform="translate(-0.414 -1.172)" fill="#f57c22"/>
      <path id="Trazado_113691" data-name="Trazado 113691" d="M21.866,39a4.866,4.866,0,1,0,4.866,4.866A4.871,4.871,0,0,0,21.866,39Zm0,7.785a2.919,2.919,0,1,1,2.919-2.919A2.923,2.923,0,0,1,21.866,46.785Z" transform="translate(-0.533 -1.265)" fill="#f57c22"/>
      <path id="Trazado_113692" data-name="Trazado 113692" d="M38.839,48.973a.973.973,0,0,0-1.783-.54l-.327.49a4.474,4.474,0,0,1-3.729,2v1.946a6.417,6.417,0,0,0,4.488-1.825,3.894,3.894,0,0,0,3.3,1.825h3.892V50.919H40.785A1.948,1.948,0,0,1,38.839,48.973Z" transform="translate(-1.074 -1.538)" fill="#f57c22"/>
    </g>
  </g>
</svg>
