<svg xmlns="http://www.w3.org/2000/svg" width="190" height="100" viewBox="0 0 190 100">
  <g id="Grupo_120983" data-name="Grupo 120983" transform="translate(10860 11218)">
    <g id="Grupo_120982" data-name="Grupo 120982" transform="translate(-11040 -11622)">
      <rect id="Rectángulo_33803" data-name="Rectángulo 33803" width="190" height="100" transform="translate(180 404)" fill="none"/>
      <path id="Trazado_113613" data-name="Trazado 113613" d="M-22,0H107a40,40,0,0,1,0,80H-22Z" transform="translate(202 414)" fill="rgba(121,210,220,0.2)"/>
      <g id="Dairy_Product" data-name="Dairy Product" transform="translate(225 404)">
        <g id="Filled" transform="translate(4.687 1.562)">
          <path id="Trazado_113614" data-name="Trazado 113614" d="M36.125,136H8v71.874H36.125Z" transform="translate(57.624 -111)" fill="#d2e1f1"/>
          <path id="Trazado_113615" data-name="Trazado 113615" d="M17.375,71.625H45.5L36.125,56H8Z" transform="translate(48.249 -46.625)" fill="#eef6ff"/>
          <path id="Trazado_113616" data-name="Trazado 113616" d="M152,143.5h18.815V71.625L161.407,56,152,71.625Z" transform="translate(-105.191 -46.625)" fill="#eef6ff"/>
          <path id="Trazado_113617" data-name="Trazado 113617" d="M152,143.5h9.407V71.625L152,56Z" transform="translate(-95.784 -46.625)" fill="#d7dee6"/>
          <path id="Trazado_113618" data-name="Trazado 113618" d="M36.125,216H8v40.624H36.125Z" transform="translate(57.624 -175.376)" fill="#f89b3e"/>
          <path id="Trazado_113619" data-name="Trazado 113619" d="M330.75,8H312V20.5h18.75Z" transform="translate(-296.375 -8)" fill="#f6f6f6"/>
          <path id="Trazado_113620" data-name="Trazado 113620" d="M311.249,125.124V97l-.314-3.125A15.639,15.639,0,0,0,305,84.5s-3.125-3.125,1.523-7.012c2.023-1.691,2.1-5.5-1.295-5.488H286.021c-3.271-.017-3.4,3.731-1.295,5.488,4.648,3.887,1.523,7.012,1.523,7.012A15.628,15.628,0,0,0,280,97v28.125Z" transform="translate(-270.625 -59.5)" fill="#ffca66"/>
          <path id="Trazado_113621" data-name="Trazado 113621" d="M311.249,201.786v11.206H280V184.867a15.611,15.611,0,0,1,.439-3.673A40.638,40.638,0,0,0,311.249,201.786Z" transform="translate(-270.625 -147.368)" fill="#ffa800"/>
          <path id="Trazado_113622" data-name="Trazado 113622" d="M84.125,8H56v9.375H84.125Z" transform="translate(0.249 -8)" fill="#d2e1f1"/>
          <path id="Trazado_113623" data-name="Trazado 113623" d="M292.8,231.451c6,1.621,7.929-6.408,3.353-8.709l2.6-6.742h10.937v56.249c-9.375,0-23.111-1.157-29.687-7.551Z" transform="translate(-269.063 -175.376)" fill="#ffdb10"/>
          <path id="Trazado_113624" data-name="Trazado 113624" d="M202.75,216l5.441,14.133c-6.945,1.142-2.8,12.482,3.3,8.583l5.049,13.113a4.745,4.745,0,0,0,3.044,7.906L221.5,264.7a27.054,27.054,0,0,1-37.5,0Z" transform="translate(-162.125 -175.376)" fill="#ffec80"/>
          <path id="Trazado_113625" data-name="Trazado 113625" d="M225.472,385.246a27.065,27.065,0,0,1-36.535-.891L196.5,364.7A39.093,39.093,0,0,0,225.472,385.246Z" transform="translate(-167.062 -295.033)" fill="#ffe44d"/>
          <ellipse id="Elipse_4810" data-name="Elipse 4810" cx="3.175" cy="2.911" rx="3.175" ry="2.911" transform="translate(31.299 79.911)" fill="#f8e868"/>
          <circle id="Elipse_4811" data-name="Elipse 4811" cx="3.175" cy="3.175" r="3.175" transform="translate(36.061 68.797)" fill="#f6e23d"/>
          <ellipse id="Elipse_4812" data-name="Elipse 4812" cx="2.911" cy="3.175" rx="2.911" ry="3.175" transform="translate(43.999 84.144)" fill="#f6e23d"/>
          <g id="Grupo_80163" data-name="Grupo 80163" transform="translate(31.249 68.747)">
            <path id="Trazado_113626" data-name="Trazado 113626" d="M297.56,419.117a3.108,3.108,0,0,0-1.534.4,3.171,3.171,0,0,1-.029-.4,3.125,3.125,0,1,1,4.659,2.721A3.124,3.124,0,0,0,297.56,419.117Z" transform="translate(-295.998 -405.052)" fill="#eed60f"/>
            <path id="Trazado_113627" data-name="Trazado 113627" d="M273.56,363.117a3.108,3.108,0,0,0-1.534.4,3.177,3.177,0,0,1-.029-.4,3.125,3.125,0,1,1,4.659,2.721,3.124,3.124,0,0,0-3.1-2.721Z" transform="translate(-267.31 -359.99)" fill="#eed60f"/>
            <path id="Trazado_113628" data-name="Trazado 113628" d="M233.56,443.117a3.108,3.108,0,0,0-1.534.4,3.166,3.166,0,0,1-.029-.4,3.125,3.125,0,1,1,4.659,2.721A3.124,3.124,0,0,0,233.56,443.117Z" transform="translate(-219.498 -424.365)" fill="#eed60f"/>
          </g>
          <path id="Trazado_113629" data-name="Trazado 113629" d="M346.588,20.5V8h4.76a17.17,17.17,0,0,0,7.234,12.5Z" transform="translate(-330.963 -8)" fill="#e8e8e8"/>
          <circle id="Elipse_4813" data-name="Elipse 4813" cx="3.175" cy="3.175" r="3.175" transform="translate(37.649 49.746)" fill="#fcf5be"/>
          <circle id="Elipse_4814" data-name="Elipse 4814" cx="1.588" cy="1.588" r="1.588" transform="translate(36.061 57.684)" fill="#fcf5be"/>
          <circle id="Elipse_4815" data-name="Elipse 4815" cx="3.969" cy="3.969" r="3.969" transform="translate(21.773 23.286)" fill="#ffe9c1"/>
          <circle id="Elipse_4816" data-name="Elipse 4816" cx="2.381" cy="2.381" r="2.381" transform="translate(17.01 31.224)" fill="#ffe9c1"/>
          <ellipse id="Elipse_4817" data-name="Elipse 4817" cx="3.175" cy="2.911" rx="3.175" ry="2.911" transform="translate(79.456 14.289)" fill="#fff"/>
          <ellipse id="Elipse_4818" data-name="Elipse 4818" cx="1.323" cy="1.588" rx="1.323" ry="1.588" transform="translate(76.81 20.11)" fill="#fff"/>
          <path id="Trazado_113630" data-name="Trazado 113630" d="M36.124,280.787v10.427H8V258.985a42.255,42.255,0,0,0,28.125,21.8Z" transform="translate(57.624 -209.965)" fill="#f87c00"/>
          <path id="Trazado_113631" data-name="Trazado 113631" d="M372.125,328,369,362.374H347.125L344,328Z" transform="translate(-344 -265.501)" fill="#42ccdc"/>
          <circle id="Elipse_4819" data-name="Elipse 4819" cx="3.175" cy="3.175" r="3.175" transform="translate(18.598 67.21)" fill="#a1e9f1"/>
          <circle id="Elipse_4820" data-name="Elipse 4820" cx="1.588" cy="1.588" r="1.588" transform="translate(15.422 73.56)" fill="#a1e9f1"/>
          <path id="Trazado_113632" data-name="Trazado 113632" d="M379.966,407.458H358.091l-2.13-23.432a33.567,33.567,0,0,0,24.794,14.755Z" transform="translate(-354.966 -310.585)" fill="#0ba1b3"/>
          <path id="Trazado_113633" data-name="Trazado 113633" d="M40,278.062a7.812,7.812,0,1,0,15.625,0c0-4.315-7.812-14.062-7.812-14.062S40,273.748,40,278.062Z" transform="translate(31.874 -214.001)" fill="#fff"/>
          <path id="Trazado_113634" data-name="Trazado 113634" d="M48.063,324.975a14.37,14.37,0,0,0,13.7,6.738,7.811,7.811,0,0,1-14.136-4.585A6.847,6.847,0,0,1,48.063,324.975Z" transform="translate(24.25 -263.067)" fill="#efebe8"/>
        </g>
        <g id="Outline">
          <path id="Trazado_113635" data-name="Trazado 113635" d="M289.563,411.154A1.563,1.563,0,0,1,288,409.591c0-2.989,6.25-1.521,6.25,3.125S288,418.84,288,415.841a1.562,1.562,0,0,1,1.563-1.562,1.562,1.562,0,0,0,0-3.125Z" transform="translate(-250.501 -328.342)"/>
          <path id="Trazado_113636" data-name="Trazado 113636" d="M264,356.687a4.687,4.687,0,1,1,4.687,4.687A4.687,4.687,0,0,1,264,356.687Zm6.25,0a1.562,1.562,0,1,0-1.562,1.562A1.562,1.562,0,0,0,270.25,356.687Z" transform="translate(-224.938 -283.251)"/>
          <path id="Trazado_113637" data-name="Trazado 113637" d="M228.687,432A4.687,4.687,0,1,1,224,436.687,4.687,4.687,0,0,1,228.687,432Zm0,6.25a1.562,1.562,0,1,0-1.562-1.562A1.562,1.562,0,0,0,228.687,438.25Z" transform="translate(-177.126 -347.626)"/>
          <path id="Trazado_113638" data-name="Trazado 113638" d="M186.225,262.728a25.686,25.686,0,0,0,25.136-5.064l-1.206-3.135a6.364,6.364,0,0,1-3.693-9.59l-4.127-10.719c-6.747,2.084-10.762-8.718-4.5-11.691l-3.386-8.793-4.6,11.937a1.563,1.563,0,0,1-2.916-1.123l5.237-13.6h-7.589l-1.76,4.573c4.7,3.932,1.435,12.744-5.669,10.825a1.562,1.562,0,1,1,.815-3.017c4.133,1.116,5.183-4.327,2.243-5.8a1.562,1.562,0,0,1-.756-1.957l2.6-6.742a1.562,1.562,0,0,1,1.458-1c11.228.006,11.869-.367,12.4,1,5.388,14.564,6,14.316,5.339,15.47a1.563,1.563,0,0,1-1.1.765c-3.38.556-2.547,4.592-.734,5.87a2.475,2.475,0,0,0,2.944-.145,1.562,1.562,0,0,1,2.3.756l5.049,13.113a1.562,1.562,0,0,1-.337,1.65,3.184,3.184,0,0,0,2.019,5.258,1.562,1.562,0,0,1,1.364,1l1.91,4.963a1.562,1.562,0,0,1-.369,1.681,28.618,28.618,0,0,1-29.064,6.481,1.562,1.562,0,0,1,1-2.96Z" transform="translate(-149.137 -167.202)"/>
          <path id="Trazado_113639" data-name="Trazado 113639" d="M321.562,320h34.374a1.562,1.562,0,1,1,0,3.125h-1.7l-3,32.953a1.562,1.562,0,0,1-1.555,1.421H327.812a1.562,1.562,0,0,1-1.556-1.421l-1.137-12.513a1.562,1.562,0,1,1,3.112-.283l1.008,11.092H348.26l2.841-31.249H326.4l.7,7.712a1.562,1.562,0,1,1-3.112.283l-.726-7.995h-1.7a1.562,1.562,0,0,1,0-3.125Z" transform="translate(-320 -257.501)"/>
          <path id="Trazado_113640" data-name="Trazado 113640" d="M306.42,37.468a1.562,1.562,0,0,1-1.844-1.217,14.062,14.062,0,0,0-5.342-8.438,1.56,1.56,0,0,1-.167-.145c-2.075-2.076-2.38-5.966,1.626-9.315a2.25,2.25,0,0,0,.781-2.222c-.051-.139-.179-.508-1.074-.505-18.922.36-19.871-.554-20.268.53a2.186,2.186,0,0,0,.769,2.2c1.977,1.653,3.022,3.448,3.105,5.334a5.437,5.437,0,0,1-1.647,4.126,14.133,14.133,0,0,0-5.624,11.25,1.562,1.562,0,1,1-3.125,0,17.274,17.274,0,0,1,6.746-13.652c1.277-1.583.095-3.362-1.459-4.661-2.828-2.364-2.663-7.095.963-8.081V1.562A1.562,1.562,0,0,1,281.421,0h18.75a1.563,1.563,0,0,1,1.563,1.562v11.1c3.663.977,3.8,5.713.963,8.082-1.574,1.316-2.727,3.088-1.459,4.661a17.185,17.185,0,0,1,6.4,10.215A1.562,1.562,0,0,1,306.42,37.468ZM298.608,3.125H282.984V6.25h10.937a1.562,1.562,0,0,1,0,3.125H282.984V12.5h15.625Z" transform="translate(-261.109 0)"/>
          <path id="Trazado_113641" data-name="Trazado 113641" d="M39.812,279.439a1.562,1.562,0,0,1,1.562-1.562,6.257,6.257,0,0,0,6.25-6.25c0-2.378-3.451-7.769-6.25-11.508-2.8,3.738-6.25,9.128-6.25,11.508a1.562,1.562,0,0,1-3.125,0c0-4.726,7.321-14,8.156-15.039a1.562,1.562,0,0,1,2.439,0c.835,1.041,8.156,10.312,8.156,15.039C50.75,280.241,39.812,283.211,39.812,279.439Z" transform="translate(42.999 -206.003)"/>
          <path id="Trazado_113642" data-name="Trazado 113642" d="M14.128,96.873h4.687V26.995L10.984,13.943,3.125,27V42.187a1.562,1.562,0,1,1-3.125,0V26.562c0-.8-.075-.158,9.44-16.113V1.562A1.562,1.562,0,0,1,11,0H39.128A1.562,1.562,0,0,1,40.69,1.562V10.5l1.25,2.084a1.562,1.562,0,1,1-2.68,1.607l-1.017-1.7H13.763l7.5,12.5h5.365a1.562,1.562,0,1,1,0,3.125H21.941v12.5h25v-12.5H32.878a1.562,1.562,0,1,1,0-3.125H45.743l-.053-.089A1.562,1.562,0,1,1,48.37,23.3c1.55,2.586,1.7,2.682,1.7,3.259V98.436A1.562,1.562,0,0,1,48.5,100H14.128a1.562,1.562,0,1,1,0-3.125Zm23.437-87.5V3.125h-25v6.25Zm-15.625,87.5h25v-12.5h-25Zm0-15.625h25v-37.5h-25Z" transform="translate(49.933)"/>
          <ellipse id="Elipse_4821" data-name="Elipse 4821" cx="1.588" cy="1.323" rx="1.588" ry="1.323" transform="translate(92.082 17.44)"/>
          <circle id="Elipse_4822" data-name="Elipse 4822" cx="1.588" cy="1.588" r="1.588" transform="translate(76.735 70.36)"/>
          <circle id="Elipse_4823" data-name="Elipse 4823" cx="1.588" cy="1.588" r="1.588" transform="translate(12.701 43.9)"/>
          <circle id="Elipse_4824" data-name="Elipse 4824" cx="1.588" cy="1.588" r="1.588" transform="translate(4.763 78.298)"/>
          <path id="Trazado_113643" data-name="Trazado 113643" d="M433.562,256a1.562,1.562,0,0,1,1.562,1.562v6.25a1.562,1.562,0,1,1-3.125,0v-6.25A1.562,1.562,0,0,1,433.562,256Z" transform="translate(-419.5 -206.001)"/>
        </g>
      </g>
    </g>
  </g>
</svg>
