<svg xmlns="http://www.w3.org/2000/svg" width="48" height="48.008" viewBox="0 0 48 48.008">
  <g id="Grupo_121019" data-name="Grupo 121019" transform="translate(2065 10866.008)">
    <g id="cereal" transform="translate(-2065.041 -10866.008)">
      <g id="Grupo_117374" data-name="Grupo 117374" transform="translate(0.041 0)">
        <path id="Trazado_113758" data-name="Trazado 113758" d="M48.034,29.363a58.878,58.878,0,0,0-3.55-20.1,2.319,2.319,0,0,0,2.01-2.291V5.42A2.326,2.326,0,0,0,44.171,3.1H22.49A2.326,2.326,0,0,0,20.167,5.42V6.969a2.319,2.319,0,0,0,2,2.29c-.539,1.487-1.023,3-1.442,4.53A37.758,37.758,0,0,0,15.056.97a2.252,2.252,0,0,0-3.7,0A37.725,37.725,0,0,0,5.316,15.547c-.449-.036-.911-.06-1.4-.06a.774.774,0,0,0-.644,1.2,11.177,11.177,0,0,1,1.419,5.766c0,.626-.324,1-.943,1.656A6.813,6.813,0,0,0,1.59,29.424,6.123,6.123,0,0,0,2.8,33.118a2.311,2.311,0,0,0-.71,1.164L1.76,35.619H.041v.774A11.628,11.628,0,0,0,11.656,48.008H22.5a11.534,11.534,0,0,0,5.77-1.549H42.621a5.42,5.42,0,0,0,5.42-5.423ZM21.716,6.969V5.42a.775.775,0,0,1,.774-.774H44.171a.775.775,0,0,1,.774.774V6.969a.775.775,0,0,1-.774.774H22.49A.775.775,0,0,1,21.716,6.969Zm10.847,28.65V34.7a2.177,2.177,0,0,0-2.175-2.175h-.831A.623.623,0,0,1,29,32.175a2.163,2.163,0,0,0-1.945-1.2h-1.9a.623.623,0,0,1-.28-.066l-.05-.025V29.367a52.8,52.8,0,0,1,2.305-15.429H39.533a52.8,52.8,0,0,1,2.307,15.428l.005,10.9H33.433a11.547,11.547,0,0,0,.678-3.872v-.774H32.562ZM23.2,30.229a2.134,2.134,0,0,0-.263-.031H21.182a.626.626,0,0,1-.595-.429l-.135-.407a2.17,2.17,0,0,0-2.063-1.487h-.606a3.653,3.653,0,0,0-1.008-2.022,3.7,3.7,0,0,0-2.384-1.061c.743-5.2,2.631-7.367,6.821-7.709a13.88,13.88,0,0,0-1.038,5.371,3.779,3.779,0,0,0,1.365,2.718,5.281,5.281,0,0,1,1.732,4.251,4.859,4.859,0,0,1-.067.805ZM10.881,10.84v1.549H9.333V10.84Zm3.1,0v1.549H12.43V10.84ZM12.43,9.292V7.743h1.549V9.292Zm3.1,6.194V13.938h1.549v1.549Zm1.549-3.1H15.527V10.84h1.549ZM9.333,13.938h1.549v1.549H9.333Zm3.1,0h1.549v1.549H12.43Zm1.549,3.1v1.549H12.43V17.035Zm1.549,0h.962a6.61,6.61,0,0,0-.962.829Zm3.1-1.549V11.931a35.721,35.721,0,0,1,.88,3.556Zm-3.1-6.194V7.743h1.542c.227.512.444,1.027.647,1.549Zm0-3.1V4.665q.424.755.811,1.529Zm-1.549,0H12.43V4.646h1.549Zm-3.1,0h-.811q.388-.775.811-1.529Zm0,1.549V9.292H8.693c.2-.522.42-1.037.647-1.549Zm-3.1,7.743H6.9a35.67,35.67,0,0,1,.88-3.556Zm3.1,1.549v.831a6.668,6.668,0,0,0-.968-.831Zm3.165,3.1A13.89,13.89,0,0,0,13.2,22.72a13.966,13.966,0,0,0-.841-2.588Zm-.328,6.213a3.211,3.211,0,0,1,.341-.019,2.242,2.242,0,0,1,1.621.622c1.031,1.032.76,2.982-.6,4.347A4.061,4.061,0,0,1,12.692,32.5a2.343,2.343,0,0,1-1.962-.6c-1.031-1.032-.76-2.982.6-4.347a4.064,4.064,0,0,1,2.383-1.208Zm.065-24.493c.068.1.129.2.2.3V3.1H12.43V2.152c.067-.1.128-.2.2-.3a.73.73,0,0,1,1.157,0ZM3.138,29.424A5.282,5.282,0,0,1,4.87,25.173a3.778,3.778,0,0,0,1.365-2.718A13.872,13.872,0,0,0,5.2,17.084c4.294.352,6.174,2.635,6.877,8.136a5.893,5.893,0,0,0-1.835,1.237,5.678,5.678,0,0,0-1.594,2.966H8.1a2.172,2.172,0,0,0-2.111,1.648l-.242.976a.628.628,0,0,1-.609.474H4.348c-.014,0-.027,0-.041,0a4.672,4.672,0,0,1-1.168-3.1ZM3.6,34.657a.775.775,0,0,1,.752-.587h.794a2.172,2.172,0,0,0,2.11-1.648l.242-.976a.628.628,0,0,1,.609-.474h.522a3.652,3.652,0,0,0,1.008,2.022,3.755,3.755,0,0,0,2.709,1.076,4.723,4.723,0,0,0,.519-.029,5.609,5.609,0,0,0,3.308-1.652,5.678,5.678,0,0,0,1.594-2.966h.625a.626.626,0,0,1,.595.429l.135.406a2.173,2.173,0,0,0,2.064,1.488h1.758a.623.623,0,0,1,.28.066l.957.478a2.185,2.185,0,0,0,.973.23h1.9a.623.623,0,0,1,.561.346,2.163,2.163,0,0,0,1.945,1.2h.831a.627.627,0,0,1,.626.626v.922H3.355Zm8.06,11.8A10.08,10.08,0,0,1,1.619,37.167H32.533A10.08,10.08,0,0,1,22.5,46.459Zm33.7-2.683A3.848,3.848,0,0,1,42.62,44.91H30.366a11.687,11.687,0,0,0,2.395-3.1h9.859a.775.775,0,0,0,.774-.775l-.006-11.673a54.325,54.325,0,0,0-2.548-16.436.775.775,0,0,0-.739-.54H26.558a.774.774,0,0,0-.738.54,54.217,54.217,0,0,0-2.369,12.084c-.266-.344-.538-.639-.787-.9-.619-.657-.942-1.03-.942-1.656a11.322,11.322,0,0,1,1.419-5.765.775.775,0,0,0-.644-1.2c-.211,0-.409.012-.612.018A57.874,57.874,0,0,1,23.8,9.292H42.862a57.344,57.344,0,0,1,3.625,20.072l.006,11.673a3.846,3.846,0,0,1-1.134,2.74Z" transform="translate(-0.041 0)" fill="#f57c22"/>
        <path id="Trazado_113759" data-name="Trazado 113759" d="M46.611,425.282l-1.34.777a8.553,8.553,0,0,0,7.374,4.257h1.549v-1.549H52.645A7,7,0,0,1,46.611,425.282Z" transform="translate(-41.03 -385.405)" fill="#f57c22"/>
        <path id="Trazado_113760" data-name="Trazado 113760" d="M156.945,462.452h1.549V464h-1.549Z" transform="translate(-142.233 -419.09)" fill="#f57c22"/>
        <path id="Trazado_113761" data-name="Trazado 113761" d="M332.687,214.71a2.323,2.323,0,1,0,2.323,2.323A2.326,2.326,0,0,0,332.687,214.71Zm0,3.1a.774.774,0,1,1,.774-.774A.775.775,0,0,1,332.687,217.807Z" transform="translate(-299.391 -194.578)" fill="#f57c22"/>
        <path id="Trazado_113762" data-name="Trazado 113762" d="M291.59,175.936a3.872,3.872,0,0,0,0-7.613,3.872,3.872,0,0,0-7.613,0,3.872,3.872,0,0,0,0,7.613,3.872,3.872,0,0,0,7.613,0Zm-1.484-.709a2.323,2.323,0,0,1-4.646,0v-.774h-.774a2.323,2.323,0,1,1,0-4.646h.774v-.774a2.323,2.323,0,0,1,4.646,0v.774h.774a2.323,2.323,0,1,1,0,4.646h-.774Z" transform="translate(-254.488 -149.675)" fill="#f57c22"/>
        <path id="Trazado_113763" data-name="Trazado 113763" d="M379.912,330.323h4.646v1.549h-4.646Z" transform="translate(-344.293 -299.35)" fill="#f57c22"/>
        <path id="Trazado_113764" data-name="Trazado 113764" d="M379.912,363.355h4.646V364.9h-4.646Z" transform="translate(-344.293 -329.285)" fill="#f57c22"/>
        <path id="Trazado_113765" data-name="Trazado 113765" d="M379.912,396.387h4.646v1.549h-4.646Z" transform="translate(-344.293 -359.22)" fill="#f57c22"/>
      </g>
    </g>
  </g>
</svg>
