<svg xmlns="http://www.w3.org/2000/svg" width="190" height="100.001" viewBox="0 0 190 100.001">
  <g id="Grupo_121006" data-name="Grupo 121006" transform="translate(-180 -3226)">
    <rect id="Rectángulo_33803" data-name="Rectángulo 33803" width="190" height="100" transform="translate(180 3226.001)" fill="none"/>
    <path id="Trazado_113613" data-name="Trazado 113613" d="M-22,0H107a40,40,0,0,1,0,80H-22Z" transform="translate(202 3236.001)" fill="rgba(121,210,220,0.2)"/>
    <g id="sabor" transform="translate(225 3225.997)">
      <g id="Grupo_121004" data-name="Grupo 121004" transform="translate(1.465 1.467)">
        <g id="Grupo_121002" data-name="Grupo 121002">
          <path id="Trazado_218330" data-name="Trazado 218330" d="M128.544,171.613l2.93,27.539c1.448,13.615,8.273,23.429,21.964,23.429a20.852,20.852,0,0,0,11.776-3.256,19.065,19.065,0,0,1,10.669-24.695l2.449-23.018c-6.15-8.49-17.279-7.864-24.894-2.93C145.823,163.749,134.693,163.124,128.544,171.613Z" transform="translate(-104.902 -134.3)" fill="#ffc061" fill-rule="evenodd"/>
          <path id="Trazado_218331" data-name="Trazado 218331" d="M32.819,174.588,31.142,158.82c-7.669-4.41-13.116-9.641-23.642-9.641v.732C15.017,161.049,24.626,169.863,32.819,174.588ZM80.929,158.82l-1.677,15.767c8.193-4.724,17.8-13.539,25.319-24.676v-.732C94.045,149.179,88.6,154.41,80.929,158.82Z" transform="translate(-7.5 -121.507)" fill="#f57c22" fill-rule="evenodd"/>
          <path id="Trazado_218332" data-name="Trazado 218332" d="M110.1,201.181l-1.677-15.768c-1.712-.985-3.314-2.01-4.886-3.009l1.736,15.634A56.147,56.147,0,0,0,110.1,201.181Zm53.275-18.954-1.89,15.719a56.4,56.4,0,0,1-4.951,3.234l1.677-15.767C160.019,184.371,161.708,183.282,163.37,182.227Z" transform="translate(-84.776 -148.1)" fill="#c7651c" fill-rule="evenodd"/>
          <path id="Trazado_218333" data-name="Trazado 218333" d="M31.142,123.549c6.15-8.49,17.279-7.864,24.894-2.93,7.614-4.935,18.744-5.56,24.893,2.929,7.669-4.41,13.116-9.641,23.642-9.641-10.766-3.043-29.008-11.1-41.811-7.77a41.587,41.587,0,0,1-6.724,1.1,41.593,41.593,0,0,1-6.724-1.1c-12.8-3.327-31.046,4.728-41.812,7.77C18.026,113.908,23.473,119.138,31.142,123.549Z" transform="translate(-7.5 -86.235)" fill="#fff" fill-rule="evenodd"/>
          <path id="Trazado_218334" data-name="Trazado 218334" d="M31.142,146.421c6.15-8.49,17.279-7.864,24.894-2.93,7.614-4.935,18.744-5.56,24.893,2.929,7.669-4.41,13.116-9.641,23.642-9.641-2.726-.771-5.932-1.863-9.408-3.01-4.648,1.471-8.619,4-13.4,7-6.979-6.421-17.328-6.655-25.732-2.352-8.4-4.3-18.752-4.069-25.731,2.352-4.777-3.006-8.748-5.533-13.4-7-3.475,1.147-6.682,2.239-9.408,3.01C18.027,136.78,23.474,142.01,31.142,146.421Z" transform="translate(-7.501 -109.107)" fill="#dee4f0" fill-rule="evenodd"/>
          <path id="Trazado_218335" data-name="Trazado 218335" d="M7.5,35.171c10.766-3.043,29.008-11.1,41.811-7.77a41.587,41.587,0,0,0,6.724,1.1,41.594,41.594,0,0,0,6.724-1.1c12.8-3.327,31.046,4.728,41.811,7.77v-.732C93.805,25.808,73.659.113,60.856,9.55c-1.736,1.279-3.032,2.414-4.82,2.414s-3.084-1.135-4.82-2.414C38.412.113,18.266,25.808,7.5,34.438Z" transform="translate(-7.5 -7.498)" fill="#f57c22" fill-rule="evenodd"/>
          <path id="Trazado_218336" data-name="Trazado 218336" d="M7.5,95.67c10.766-3.043,29.008-11.1,41.811-7.77a41.588,41.588,0,0,0,6.724,1.1,41.6,41.6,0,0,0,6.724-1.1c12.8-3.327,31.046,4.728,41.811,7.77v-.732c-1.9-1.524-4.1-3.582-6.492-5.884-11.773-3.842-24.936-8.392-36.425-5.407a32.275,32.275,0,0,1-5.623.954,32.327,32.327,0,0,1-5.615-.954c-11.488-2.985-24.652,1.565-36.425,5.407-2.4,2.3-4.59,4.36-6.492,5.884Z" transform="translate(-7.5 -67.998)" fill="#c7651c" fill-rule="evenodd"/>
          <path id="Trazado_218337" data-name="Trazado 218337" d="M328.543,309.5a19.043,19.043,0,1,0,19.043,19.043A19.043,19.043,0,0,0,328.543,309.5Zm-6.215,14.9,4.143,4.143,8.286-8.286L338.9,324.4l-12.43,12.43-8.286-8.286Z" transform="translate(-250.515 -250.513)" fill="#fff" fill-rule="evenodd"/>
          <path id="Trazado_218338" data-name="Trazado 218338" d="M362.253,372.858l-4.143-4.143-4.143,4.143,8.286,8.286,12.43-12.43-4.143-4.143Z" transform="translate(-286.297 -294.83)" fill="#26c7db" fill-rule="evenodd"/>
          <path id="Trazado_218339" data-name="Trazado 218339" d="M309.5,328.54a19.046,19.046,0,0,0,21.239,18.916,19.043,19.043,0,0,1,0-37.832A19.047,19.047,0,0,0,309.5,328.54Z" transform="translate(-250.515 -250.512)" fill="#cad8eb" fill-rule="evenodd"/>
          <path id="Trazado_218340" data-name="Trazado 218340" d="M128.544,182.465,131.474,210c1.489,14,8.927,24.6,24.171,23.34-12.236-1-18.422-10.47-19.777-23.34l-3.309-31.442A15.8,15.8,0,0,0,128.544,182.465Z" transform="translate(-104.902 -145.151)" fill="#fda829" fill-rule="evenodd"/>
        </g>
        <g id="Grupo_121003" data-name="Grupo 121003" transform="translate(59.9 5.211)">
          <path id="Trazado_218341" data-name="Trazado 218341" d="M322.974,40.039h-2.93v-2.93h2.93Zm-5.859-2.93h-2.93v-2.93h2.93Z" transform="translate(-314.185 -34.179)" fill="#fff"/>
        </g>
      </g>
      <g id="Grupo_121005" data-name="Grupo 121005" transform="translate(0 0.003)">
        <path id="Trazado_218342" data-name="Trazado 218342" d="M248.5,295.388h2.93v2.93H248.5Z" transform="translate(-199.964 -237.695)"/>
        <path id="Trazado_218343" data-name="Trazado 218343" d="M248.5,325.388h2.93v5.93H248.5Z" transform="translate(-199.964 -261.836)"/>
        <path id="Trazado_218344" data-name="Trazado 218344" d="M99.75,30.691l.251-.371V27.7l-.549-.44c-2.337-1.873-5.219-4.659-8.271-7.609C85.583,14.244,79.238,8.111,72.888,4.14A25.774,25.774,0,0,0,63.219.166a12.066,12.066,0,0,0-9.268,2.172q-.289.213-.564.42C51.93,3.85,51.054,4.467,50,4.467s-1.929-.617-3.387-1.709q-.275-.206-.564-.42C42.672-.151,38.591-.652,33.919.848c-3.661,1.176-7.74,3.58-12.471,7.352l1.826,2.291C32.746,2.94,39.431,1.1,44.312,4.7q.28.207.546.407C46.433,6.283,47.921,7.4,50,7.4S53.568,6.283,55.143,5.1q.267-.2.547-.407c3.881-2.861,9-2.23,15.645,1.927,6.088,3.808,12.316,9.827,17.81,15.137,1.57,1.517,3.095,2.991,4.536,4.331q-1.126-.37-2.3-.759C80.477,21.714,66.9,17.211,56.357,19.951A40.733,40.733,0,0,1,50,21a40.733,40.733,0,0,1-6.356-1.048C33.1,17.21,19.525,21.714,8.618,25.333q-1.171.388-2.3.759c1.441-1.34,2.966-2.814,4.536-4.331,3.115-3.011,6.647-6.423,10.193-9.436l-1.9-2.233c-3.618,3.074-7.185,6.521-10.332,9.562C5.768,22.6,2.885,25.39.548,27.263L0,27.7v2.616l.251.371C7.173,40.948,16.53,50.141,25.4,55.435l1.174,11.04c.792,7.444,3.06,13.374,6.74,17.624,4.089,4.721,9.7,7.115,16.681,7.115a22.99,22.99,0,0,0,11.118-2.619A20.5,20.5,0,1,0,74.142,59.7l.453-4.261c8.875-5.294,18.232-14.488,25.155-24.744ZM74.989,51.734l1.284-12.066c1.388-.818,2.709-1.654,3.988-2.468,4.99-3.173,9.372-5.956,15.918-6.5A83.637,83.637,0,0,1,74.989,51.734ZM9.54,28.114c10.541-3.5,23.659-7.849,33.368-5.327A42.41,42.41,0,0,0,50,23.929a42.406,42.406,0,0,0,7.092-1.143c9.708-2.522,22.827,1.83,33.368,5.327l1.122.372c-5,1.227-8.87,3.684-12.894,6.242-1.111.707-2.252,1.431-3.432,2.139A16.847,16.847,0,0,0,63.09,30.819,23.314,23.314,0,0,0,50,34.127a23.309,23.309,0,0,0-13.09-3.308,16.848,16.848,0,0,0-12.167,6.047c-1.18-.707-2.321-1.432-3.432-2.139-4.024-2.559-7.892-5.016-12.894-6.242l1.122-.372ZM3.822,30.7c6.546.543,10.928,3.326,15.917,6.5,1.279.813,2.6,1.65,3.988,2.468l1.283,12.066A83.645,83.645,0,0,1,3.822,30.7ZM97.071,79.495A17.578,17.578,0,1,1,79.493,61.916,17.6,17.6,0,0,1,97.071,79.495Zm-38.086,0A20.429,20.429,0,0,0,60,85.863a19.969,19.969,0,0,1-10,2.42c-6.092,0-10.959-2.053-14.466-6.1C32.253,78.391,30.22,73,29.493,66.164L26.624,39.2A14.063,14.063,0,0,1,37.1,33.743a20.319,20.319,0,0,1,11.438,2.922v18.1h2.93v-18.1A20.325,20.325,0,0,1,62.9,33.743,14.063,14.063,0,0,1,73.377,39.2l-2.3,21.594A20.537,20.537,0,0,0,58.985,79.495Z" transform="translate(0 -0.003)"/>
        <path id="Trazado_218345" data-name="Trazado 218345" d="M353.719,374.681l14.5-14.5-6.215-6.215-8.286,8.286-4.143-4.143-6.215,6.215Zm0-8.286,8.286-8.286,2.072,2.072-10.358,10.358-6.215-6.215,2.071-2.072Z" transform="translate(-276.298 -284.831)"/>
      </g>
    </g>
  </g>
</svg>
