<svg xmlns="http://www.w3.org/2000/svg" width="48" height="47.997" viewBox="0 0 48 47.997">
  <g id="Grupo_121020" data-name="Grupo 121020" transform="translate(1636 10865.497)">
    <g id="especia" transform="translate(-1636 -10865.514)">
      <g id="Grupo_117376" data-name="Grupo 117376" transform="translate(12.107 0.017)">
        <g id="Grupo_117375" data-name="Grupo 117375" transform="translate(0 0)">
          <path id="Trazado_113766" data-name="Trazado 113766" d="M163.665,12.222a.937.937,0,0,0-1.677.839,11.061,11.061,0,1,1-5.544-5.225.937.937,0,0,0,.737-1.724,12.949,12.949,0,0,0-12.321,1.167,12.965,12.965,0,0,0-8.228-6.81,13.02,13.02,0,0,0-6.44-.092.937.937,0,0,0-.692.692,12.92,12.92,0,0,0,2.288,10.882q-.514.08-1.022.2a.937.937,0,0,0-.692.692A12.94,12.94,0,0,0,144.733,28.65a12.94,12.94,0,0,0,18.932-16.427ZM131.2,2.077a11.073,11.073,0,0,1,12.148,6.4c-.137.126-.272.254-.4.386a12.951,12.951,0,0,0-1.636,2L135.347,4.9a.937.937,0,0,0-1.326,1.326l6.337,6.337q-.187.4-.344.816a13.019,13.019,0,0,0-5.885-1.575A10.982,10.982,0,0,1,131.2,2.077ZM134.828,23.7a10.986,10.986,0,0,1-3.053-9.851,11.146,11.146,0,0,1,7.688,1.366,13.042,13.042,0,0,0-.135,4.86l-3.407-3.407A.937.937,0,0,0,134.6,18l6.029,6.029.031.028a12.878,12.878,0,0,0,2.081,2.886A11.078,11.078,0,0,1,134.828,23.7Z" transform="translate(-129.141 -0.017)" fill="#f57c22"/>
        </g>
      </g>
      <g id="Grupo_117378" data-name="Grupo 117378" transform="translate(0 8.778)">
        <g id="Grupo_117377" data-name="Grupo 117377">
          <path id="Trazado_113767" data-name="Trazado 113767" d="M27.974,131.186l-3.261-4.125c-1.723-2.18-3.376-4.459-4.913-6.774a.937.937,0,1,0-1.562,1.037c1.565,2.357,3.249,4.679,5,6.9l1.859,2.351-1.232-.143a24.391,24.391,0,0,1-15.494-8.1l-.165-.187a25.262,25.262,0,0,1-6.26-14.777l.472-.4a2.059,2.059,0,0,1,1.615-.462l1.3.186a.937.937,0,0,0,.966-.5,2.058,2.058,0,0,1,2.284-1.065l.973.22a103.492,103.492,0,0,0,4.754,9.569.937.937,0,0,0,1.633-.92,101.564,101.564,0,0,1-4.856-9.827,6.745,6.745,0,0,0-6.207-4.093,4.9,4.9,0,0,0-.591.037,7.791,7.791,0,0,1,2.281-5.041.937.937,0,0,0-1.326-1.326A9.661,9.661,0,0,0,2.4,100.625v.135a4.884,4.884,0,0,0-2.4,4.2v.467c0,.512.016,1.023.045,1.532a.924.924,0,0,0,.006.1A27.131,27.131,0,0,0,6.8,123.383l.165.188a26.264,26.264,0,0,0,16.683,8.724l3.478.4a.923.923,0,0,0,.109.006.937.937,0,0,0,.735-1.519ZM1.875,104.96a3.012,3.012,0,0,1,3.009-3.007A4.871,4.871,0,0,1,8.146,103.2,3.935,3.935,0,0,0,5,104.752l-.7-.1a3.938,3.938,0,0,0-2.428.435v-.126Z" transform="translate(0 -93.474)" fill="#f57c22"/>
        </g>
      </g>
      <g id="Grupo_117380" data-name="Grupo 117380" transform="translate(16.277 32.356)">
        <g id="Grupo_117379" data-name="Grupo 117379">
          <path id="Trazado_113768" data-name="Trazado 113768" d="M175.377,345.446l-.016-.025a.937.937,0,0,0-1.6.98l.016.025a.937.937,0,0,0,1.6-.98Z" transform="translate(-173.625 -344.973)" fill="#f57c22"/>
        </g>
      </g>
      <g id="Grupo_117382" data-name="Grupo 117382" transform="translate(42.605 8.586)">
        <g id="Grupo_117381" data-name="Grupo 117381">
          <path id="Trazado_113769" data-name="Trazado 113769" d="M456.191,91.84l-.142-.144a.937.937,0,1,0-1.326,1.326l.121.123a.937.937,0,1,0,1.346-1.3Z" transform="translate(-454.449 -91.421)" fill="#f57c22"/>
        </g>
      </g>
      <g id="Grupo_117384" data-name="Grupo 117384" transform="translate(25.497 8.446)">
        <g id="Grupo_117383" data-name="Grupo 117383">
          <path id="Trazado_113770" data-name="Trazado 113770" d="M281.526,89.931a9.561,9.561,0,1,0,9.561,9.561A9.572,9.572,0,0,0,281.526,89.931Zm-7.075,12.564a7.682,7.682,0,0,1,0-6.005l5.2,3Zm6.138,4.625a7.687,7.687,0,0,1-5.2-3l5.2-3Zm0-9.251-5.2-3a7.688,7.688,0,0,1,5.2-3Zm1.875-6a7.687,7.687,0,0,1,5.2,3l-5.2,3Zm0,15.255v-6l5.2,3A7.688,7.688,0,0,1,282.464,107.119Zm.937-7.627,5.2-3a7.682,7.682,0,0,1,0,6.005Z" transform="translate(-271.965 -89.931)" fill="#f57c22"/>
        </g>
      </g>
      <g id="Grupo_117386" data-name="Grupo 117386" transform="translate(25.933 31.935)">
        <g id="Grupo_117385" data-name="Grupo 117385">
          <path id="Trazado_113771" data-name="Trazado 113771" d="M284.667,342.405a3.954,3.954,0,0,0-6.785,0,7.737,7.737,0,0,0,0,8.472,3.954,3.954,0,0,0,6.785,0,7.737,7.737,0,0,0,0-8.472Zm-3.393,8.521c-.434,0-1.091-.922-1.091-2.312s.657-2.312,1.091-2.312,1.091.922,1.091,2.312S281.709,350.926,281.275,350.926Zm2.766-3.848c-.425-1.566-1.489-2.651-2.766-2.651s-2.34,1.085-2.766,2.651q-.015-.216-.015-.436c0-2.323,1.273-4.285,2.781-4.285s2.781,1.962,2.781,4.285Q284.055,346.862,284.04,347.078Z" transform="translate(-276.619 -340.482)" fill="#f57c22"/>
        </g>
      </g>
      <g id="Grupo_117388" data-name="Grupo 117388" transform="translate(37.051 37.069)">
        <g id="Grupo_117387" data-name="Grupo 117387">
          <path id="Trazado_113772" data-name="Trazado 113772" d="M406.08,401.313a7.737,7.737,0,0,0-5.991-5.991,3.955,3.955,0,0,0-4.8,4.8,7.737,7.737,0,0,0,5.991,5.991,5.434,5.434,0,0,0,.9.078,3.944,3.944,0,0,0,2.857-1.117A4.173,4.173,0,0,0,406.08,401.313Zm-7.041,1.669q-.163-.143-.32-.3a5.46,5.46,0,0,1-1.579-2.874,2.362,2.362,0,0,1,.516-2.122,2.12,2.12,0,0,1,1.541-.567,3.51,3.51,0,0,1,.581.051,5.458,5.458,0,0,1,2.874,1.579q.156.156.3.319c-1.408-.806-2.927-.821-3.83.081S398.232,401.573,399.039,402.982Zm4.676.764c-.307.307-1.424.119-2.406-.864s-1.171-2.1-.864-2.406a.617.617,0,0,1,.439-.135,3.066,3.066,0,0,1,1.967,1,3.5,3.5,0,0,1,.954,1.593A.911.911,0,0,1,403.715,403.746Z" transform="translate(-395.213 -395.244)" fill="#f57c22"/>
        </g>
      </g>
      <g id="Grupo_117390" data-name="Grupo 117390" transform="translate(43.682 30.105)">
        <g id="Grupo_117389" data-name="Grupo 117389">
          <path id="Trazado_113773" data-name="Trazado 113773" d="M467.538,321.238a.937.937,0,1,0,.275.663A.944.944,0,0,0,467.538,321.238Z" transform="translate(-465.938 -320.963)" fill="#f57c22"/>
        </g>
      </g>
      <g id="Grupo_117392" data-name="Grupo 117392" transform="translate(37.87 31.935)">
        <g id="Grupo_117391" data-name="Grupo 117391">
          <path id="Trazado_113774" data-name="Trazado 113774" d="M405.546,340.756a.937.937,0,1,0,.275.663A.945.945,0,0,0,405.546,340.756Z" transform="translate(-403.946 -340.481)" fill="#f57c22"/>
        </g>
      </g>
      <g id="Grupo_117394" data-name="Grupo 117394" transform="translate(41.586 33.104)">
        <g id="Grupo_117393" data-name="Grupo 117393">
          <path id="Trazado_113775" data-name="Trazado 113775" d="M445.181,353.224a.937.937,0,1,0,.275.663A.944.944,0,0,0,445.181,353.224Z" transform="translate(-443.581 -352.949)" fill="#f57c22"/>
        </g>
      </g>
    </g>
  </g>
</svg>
