<svg xmlns="http://www.w3.org/2000/svg" width="48.931" height="39.019" viewBox="0 0 48.931 39.019">
  <g id="Grupo_121018" data-name="Grupo 121018" transform="translate(2447 10856.208)">
    <g id="queso" transform="translate(-2447 -10908.066)">
      <g id="Grupo_117360" data-name="Grupo 117360" transform="translate(34.978 85.143)">
        <g id="Grupo_117359" data-name="Grupo 117359">
          <path id="Trazado_113750" data-name="Trazado 113750" d="M366.956,400.142a.956.956,0,1,0,.956.956A.956.956,0,0,0,366.956,400.142Z" transform="translate(-366 -400.142)" fill="#f57c22"/>
        </g>
      </g>
      <g id="Grupo_117362" data-name="Grupo 117362" transform="translate(0 51.858)">
        <g id="Grupo_117361" data-name="Grupo 117361">
          <path id="Trazado_113751" data-name="Trazado 113751" d="M34.8,51.971a2.9,2.9,0,0,0-1.854.084L20.3,56.747a.956.956,0,0,0-.622.843,2.868,2.868,0,0,1-4.865,1.891.955.955,0,0,0-1-.211L.623,64.178a.963.963,0,0,0-.623.9V69.06a.956.956,0,0,0,.637.9,1.915,1.915,0,0,1,1.274,1.8,1.915,1.915,0,0,1-1.274,1.8.956.956,0,0,0-.637.9v3.986a.956.956,0,0,0,.956.956,2.867,2.867,0,1,1,0,5.734A.956.956,0,0,0,0,86.1v3.823a.956.956,0,0,0,.956.956H46.064a2.87,2.87,0,0,0,2.867-2.867V65.073C48.931,57.622,41.955,54.072,34.8,51.971ZM13.959,61.256a4.781,4.781,0,0,0,7.553-2.919l12.1-4.493.016-.006a.982.982,0,0,1,.629-.033C42.414,56.2,46.487,59.492,46.97,64.118H30.2a4.774,4.774,0,0,0-7.642,0H6.266Zm15.285,5.729a2.865,2.865,0,1,1-.383-1.434A2.87,2.87,0,0,1,29.244,66.985ZM47.019,88.01a.957.957,0,0,1-.956.956H1.911V86.958a4.779,4.779,0,0,0,0-9.365V75.074a3.831,3.831,0,0,0,1.911-3.311,3.831,3.831,0,0,0-1.911-3.311V66.019H21.7a4.779,4.779,0,1,0,9.362.01H47.019Z" transform="translate(0 -51.858)" fill="#f57c22"/>
        </g>
      </g>
      <g id="Grupo_117364" data-name="Grupo 117364" transform="translate(21.598 77.497)">
        <g id="Grupo_117363" data-name="Grupo 117363">
          <path id="Trazado_113752" data-name="Trazado 113752" d="M230.778,320.142a4.778,4.778,0,1,0,4.778,4.778A4.784,4.784,0,0,0,230.778,320.142Zm0,7.645a2.867,2.867,0,1,1,2.867-2.867A2.87,2.87,0,0,1,230.778,327.787Z" transform="translate(-226 -320.142)" fill="#f57c22"/>
        </g>
      </g>
      <g id="Grupo_117366" data-name="Grupo 117366" transform="translate(33.64 56.472)">
        <g id="Grupo_117365" data-name="Grupo 117365">
          <path id="Trazado_113753" data-name="Trazado 113753" d="M354.867,100.142a2.867,2.867,0,1,0,2.867,2.867A2.87,2.87,0,0,0,354.867,100.142Zm0,3.823a.956.956,0,1,1,.956-.956A.957.957,0,0,1,354.867,103.965Z" transform="translate(-352 -100.142)" fill="#f57c22"/>
        </g>
      </g>
      <g id="Grupo_117368" data-name="Grupo 117368" transform="translate(38.8 85.143)">
        <g id="Grupo_117367" data-name="Grupo 117367">
          <path id="Trazado_113754" data-name="Trazado 113754" d="M411.352,400.142h-4.4a.956.956,0,1,0,0,1.911h4.4a.956.956,0,1,0,0-1.911Z" transform="translate(-406 -400.142)" fill="#f57c22"/>
        </g>
      </g>
      <g id="Grupo_117370" data-name="Grupo 117370" transform="translate(10.13 75.586)">
        <g id="Grupo_117369" data-name="Grupo 117369">
          <path id="Trazado_113755" data-name="Trazado 113755" d="M109.823,300.142a3.823,3.823,0,1,0,3.823,3.823A3.827,3.827,0,0,0,109.823,300.142Zm0,5.734a1.911,1.911,0,1,1,1.911-1.911A1.914,1.914,0,0,1,109.823,305.876Z" transform="translate(-106 -300.142)" fill="#f57c22"/>
        </g>
      </g>
      <g id="Grupo_117372" data-name="Grupo 117372" transform="translate(34.978 69.852)">
        <g id="Grupo_117371" data-name="Grupo 117371">
          <path id="Trazado_113756" data-name="Trazado 113756" d="M369.823,240.142a3.823,3.823,0,1,0,3.823,3.823A3.827,3.827,0,0,0,369.823,240.142Zm0,5.734a1.911,1.911,0,1,1,1.911-1.911A1.914,1.914,0,0,1,369.823,245.876Z" transform="translate(-366 -240.142)" fill="#f57c22"/>
        </g>
      </g>
    </g>
  </g>
</svg>
