<svg xmlns="http://www.w3.org/2000/svg" width="75" height="95.199" viewBox="0 0 75 95.199">
  <g id="documentos-oficiales" transform="translate(-54.316)">
    <g id="Grupo_120986" data-name="Grupo 120986" transform="translate(56.176 1.859)">
      <path id="Trazado_218319" data-name="Trazado 218319" d="M64.317,10h60.142V91.044H64.317Z" transform="translate(-64.317 -10)" fill="#fff"/>
      <path id="Trazado_218320" data-name="Trazado 218320" d="M192.68,66.13v81.043H134.437V136.737h47.1V66.13Z" transform="translate(-121.399 -55.693)" fill="#ffd18c"/>
      <circle id="Elipse_5918" data-name="Elipse 5918" cx="7.553" cy="7.553" r="7.553" transform="translate(12.391 13.393)" fill="#fed935"/>
      <path id="Trazado_218321" data-name="Trazado 218321" d="M153.022,150.516v14.159l-5.5-4.242-5.495,4.242V150.518a7.553,7.553,0,0,0,10.991,0Z" transform="translate(-127.581 -124.389)" fill="#f57c22"/>
    </g>
    <g id="Grupo_120988" data-name="Grupo 120988" transform="translate(54.316)">
      <g id="Grupo_120987" data-name="Grupo 120987">
        <path id="Trazado_218322" data-name="Trazado 218322" d="M127.457,10.437h-9.28V1.859A1.859,1.859,0,0,0,116.317,0H56.175a1.859,1.859,0,0,0-1.859,1.859V82.9a1.859,1.859,0,0,0,1.859,1.859H67.354v8.576A1.859,1.859,0,0,0,69.213,95.2h58.244a1.859,1.859,0,0,0,1.859-1.859V12.3a1.859,1.859,0,0,0-1.859-1.859ZM58.035,3.719h56.423V81.043H58.035ZM125.6,91.48H71.073V84.763h45.245a1.878,1.878,0,0,0,1.86-1.86V14.155h7.42Z" transform="translate(-54.316)"/>
        <path id="Trazado_218323" data-name="Trazado 218323" d="M243.6,81.085h13.38a1.859,1.859,0,1,0,0-3.719H243.6a1.859,1.859,0,1,0,0,3.719Z" transform="translate(-206.889 -62.981)"/>
        <path id="Trazado_218324" data-name="Trazado 218324" d="M243.6,148.183h13.38a1.859,1.859,0,0,0,0-3.719H243.6a1.859,1.859,0,1,0,0,3.719Z" transform="translate(-206.889 -117.603)"/>
        <path id="Trazado_218325" data-name="Trazado 218325" d="M243.6,216.3h13.38a1.859,1.859,0,1,0,0-3.719H243.6a1.859,1.859,0,1,0,0,3.719Z" transform="translate(-206.889 -173.057)"/>
        <path id="Trazado_218326" data-name="Trazado 218326" d="M122.819,283.4h35.837a1.859,1.859,0,1,0,0-3.719H122.819a1.859,1.859,0,1,0,0,3.719Z" transform="translate(-108.569 -227.68)"/>
        <path id="Trazado_218327" data-name="Trazado 218327" d="M150.186,350.5a1.859,1.859,0,0,0,0-3.719H122.819a1.859,1.859,0,1,0,0,3.719Z" transform="translate(-108.569 -282.303)"/>
        <path id="Trazado_218328" data-name="Trazado 218328" d="M317.289,348.151a1.859,1.859,0,1,0-1.006,2.428A1.877,1.877,0,0,0,317.289,348.151Z" transform="translate(-265.485 -282.486)"/>
        <path id="Trazado_218329" data-name="Trazado 218329" d="M123.017,100.782a1.876,1.876,0,0,0,3,1.472l4.358-3.365,4.36,3.365a1.876,1.876,0,0,0,3-1.472V87.306a9.413,9.413,0,1,0-14.71,0v13.475Zm8.49-5.714a1.877,1.877,0,0,0-2.272,0L126.736,97V90.124a9.407,9.407,0,0,0,7.272,0V97Zm-1.136-19.319a5.694,5.694,0,0,1,.293,11.381,5.768,5.768,0,0,1-5.987-5.687,5.7,5.7,0,0,1,5.694-5.694Z" transform="translate(-108.567 -58.637)"/>
      </g>
    </g>
  </g>
</svg>
