<svg xmlns="http://www.w3.org/2000/svg" width="190" height="100" viewBox="0 0 190 100">
  <g id="Grupo_121091" data-name="Grupo 121091" transform="translate(-180 -3313)">
    <g id="Grupo_117324" data-name="Grupo 117324" transform="translate(0 551)">
      <rect id="Rectángulo_33803" data-name="Rectángulo 33803" width="190" height="100" transform="translate(180 2762)" fill="none"/>
      <path id="Trazado_113613" data-name="Trazado 113613" d="M-22,0H107a40,40,0,0,1,0,80H-22Z" transform="translate(202 2772)" fill="rgba(121,210,220,0.2)"/>
      <g id="libro-de-leyes" transform="translate(193.59 2762)">
        <path id="Trazado_113693" data-name="Trazado 113693" d="M53.431,7.5a6.9,6.9,0,0,0-6.9,6.822h0V97.728a6.9,6.9,0,0,1,6.9-6.8h71.18a3.745,3.745,0,0,0,3.745-3.745V10.929A3.429,3.429,0,0,0,124.927,7.5Z" transform="translate(-6.036 -6.035)" fill="#d96c00"/>
        <path id="Trazado_113694" data-name="Trazado 113694" d="M60.421,14.322h0a6.9,6.9,0,0,1,6.9-6.822H53.431a6.9,6.9,0,0,0-6.9,6.822h0V97.728a6.9,6.9,0,0,1,6.9-6.8h6.989Z" transform="translate(-6.036 -6.035)" fill="#b35900"/>
        <path id="Trazado_113695" data-name="Trazado 113695" d="M53.9,7.5h-.472a6.9,6.9,0,0,0-6.9,6.822h0V97.728a6.9,6.9,0,0,1,6.9-6.8H53.9Z" transform="translate(-6.036 -6.035)" fill="#b35900"/>
        <g id="Grupo_117323" data-name="Grupo 117323" transform="translate(60.681 36.234)">
          <path id="Trazado_113696" data-name="Trazado 113696" d="M327.229,189.8a3.584,3.584,0,0,0,2.029-2.754c.078-.553.1-1.082.1-1.072a.441.441,0,0,0-.442-.458H317.141a.441.441,0,0,0-.442.457c.071,1.7.5,3.047,2.143,3.835,1.1.523,1.207,1.056,2.052,1.056h4.267a1.624,1.624,0,0,0,.94-.325A4.987,4.987,0,0,1,327.229,189.8Z" transform="translate(-284.116 -185.516)" fill="#ffe44d"/>
          <path id="Trazado_113697" data-name="Trazado 113697" d="M160.405,189.8a3.65,3.65,0,0,0,2.082-3.206c.031-.317.045-.651.044-.619a.441.441,0,0,0-.442-.458H150.317a.445.445,0,0,0-.441.461,10.871,10.871,0,0,0,.117,1.187,3.583,3.583,0,0,0,2.026,2.643c1.094.522,1.2,1.056,2.052,1.056h4.267C159.189,190.864,159.32,190.311,160.405,189.8Z" transform="translate(-149.873 -185.516)" fill="#ffe44d"/>
        </g>
        <path id="Trazado_113698" data-name="Trazado 113698" d="M157.772,189.8c-1.593-.752-2.035-2.1-2.126-3.827a.441.441,0,0,1,.442-.457h-5.769a.445.445,0,0,0-.441.461,10.853,10.853,0,0,0,.117,1.187,3.583,3.583,0,0,0,2.026,2.643c1.095.523,1.2,1.056,2.052,1.056,4.044-.093,4.33.176,5.018-.2A8.549,8.549,0,0,0,157.772,189.8Z" transform="translate(-89.193 -149.282)" fill="#ffdb10"/>
        <path id="Trazado_113699" data-name="Trazado 113699" d="M53.431,434.643a6.8,6.8,0,1,0,0,13.6v.04h67.531V434.643Z" transform="translate(-6.036 -349.752)" fill="#dee4f0"/>
        <path id="Trazado_113700" data-name="Trazado 113700" d="M58.253,441.445a6.9,6.9,0,0,1,6.9-6.8H53.43a6.8,6.8,0,1,0,0,13.6v.04H65.15v-.04A6.9,6.9,0,0,1,58.253,441.445Z" transform="translate(-6.035 -349.752)" fill="#b0c0d2"/>
        <path id="Trazado_113701" data-name="Trazado 113701" d="M431.258,419.213h-3.649v13.644h3.642A3.752,3.752,0,0,0,435,429.1V415.468A3.745,3.745,0,0,1,431.258,419.213Z" transform="translate(-312.682 -334.322)" fill="#f87c00"/>
        <path id="Trazado_113702" data-name="Trazado 113702" d="M431.25,454.009h-3.642v6.842h3.642A3.752,3.752,0,0,0,435,457.1v-6.842A3.752,3.752,0,0,1,431.25,454.009Z" transform="translate(-312.682 -362.316)" fill="#d96c00"/>
        <path id="Trazado_113703" data-name="Trazado 113703" d="M117.633,434.643v7.541a.587.587,0,0,0,.9.5l3.583-2.276a1,1,0,0,1,1.074,0l3.533,2.244a.62.62,0,0,0,.952-.523v-7.482Z" transform="translate(-63.248 -349.752)" fill="#ffe44d"/>
        <path id="Trazado_113704" data-name="Trazado 113704" d="M122.656,434.643h-5.023v7.541a.587.587,0,0,0,.9.5c3.672-2.271,3.608-2.432,4.12-2.432v-5.6Z" transform="translate(-63.248 -349.752)" fill="#ffdb10"/>
        <circle id="Elipse_5717" data-name="Elipse 5717" cx="3.111" cy="3.111" r="3.111" transform="translate(80.138 15.965)" fill="#79d2dc"/>
        <path id="Trazado_113705" data-name="Trazado 113705" d="M252.585,81.746a3.111,3.111,0,1,0,2.691,4.661A3.107,3.107,0,0,1,252.585,81.746Z" transform="translate(-169.335 -65.78)" fill="#42ccdc"/>
        <path id="Trazado_113706" data-name="Trazado 113706" d="M249.861,205.222H247.52a2.889,2.889,0,0,0-2.889,2.889v3.294h8.119v-3.294A2.889,2.889,0,0,0,249.861,205.222Z" transform="translate(-165.442 -165.14)" fill="#ffe44d"/>
        <path id="Trazado_113707" data-name="Trazado 113707" d="M250.721,205.341c-.686-.213-1.047-.1-3.2-.13a2.889,2.889,0,0,0-2.889,2.889v3.294h4.059V208.1A2.891,2.891,0,0,1,250.721,205.341Z" transform="translate(-165.443 -165.129)" fill="#ffdb10"/>
        <path id="Trazado_113708" data-name="Trazado 113708" d="M243.929,237.695h0a2.889,2.889,0,0,0-2.889-2.889h-8.2a2.889,2.889,0,0,0-2.889,2.889h0a2.889,2.889,0,0,0,2.889,2.889h8.2A2.888,2.888,0,0,0,243.929,237.695Z" transform="translate(-153.629 -188.946)" fill="#79d2dc"/>
        <path id="Trazado_113709" data-name="Trazado 113709" d="M236.652,237.694a2.889,2.889,0,0,1,2.889-2.889h-6.7a2.889,2.889,0,1,0,0,5.778h6.7A2.889,2.889,0,0,1,236.652,237.694Z" transform="translate(-153.63 -188.945)" fill="#42ccdc"/>
        <path id="Trazado_113710" data-name="Trazado 113710" d="M324.611,189.808c-1.593-.764-2.049-2.058-2.143-3.835a.441.441,0,0,1,.442-.457h-5.769a.441.441,0,0,0-.442.457c.085,1.613.423,3.011,2.143,3.835,1.1.523,1.209,1.056,2.052,1.056,4.044-.093,4.33.176,5.018-.2A8.63,8.63,0,0,0,324.611,189.808Z" transform="translate(-223.435 -149.282)" fill="#ffdb10"/>
        <path id="Trazado_113711" data-name="Trazado 113711" d="M187.591,93.078c2.084-1,2.853-2.82,2.94-5.077a1.907,1.907,0,0,0-1.905-1.984h-.3l-4.123-9.84v-.049c.206,0,.413,0,.62-.014a1.465,1.465,0,0,0-.129-2.927c-.163.007-.327.009-.491.011v-.562a1.465,1.465,0,1,0-2.93,0v.295c-5.941-1.184-5.951-4.49-10.3-4.49h-.259a4.6,4.6,0,0,0-2.86-2.841v-.932a1.465,1.465,0,1,0-2.93,0V65.6a4.6,4.6,0,0,0-2.86,2.843,6.554,6.554,0,0,0-4.462,1.526,13.493,13.493,0,0,1-5.986,2.941v-.271a1.465,1.465,0,0,0-2.93,0V73.2a1.463,1.463,0,0,0,0,2.926v.048l-4.123,9.839a2.1,2.1,0,0,0-1.676.588c-.7.733-.57,1.611-.392,2.771a5.054,5.054,0,0,0,2.839,3.72c.73.348,1.292,1.2,2.683,1.2h4.267a3.094,3.094,0,0,0,1.869-.657,3.457,3.457,0,0,1,.847-.558c2.07-.989,2.845-2.815,2.943-5.077a1.906,1.906,0,0,0-1.905-1.986h-.3l-4.123-9.839v-.294a16.686,16.686,0,0,0,7.883-3.685,3.77,3.77,0,0,1,2.546-.828,4.6,4.6,0,0,0,2.878,2.895V89.486a4.356,4.356,0,0,0-3.758,5.932,4.353,4.353,0,0,0,1.185,8.542h8.2a4.354,4.354,0,0,0,1.072-8.574,4.356,4.356,0,0,0-3.77-5.9V74.265a4.6,4.6,0,0,0,2.878-2.9,3.67,3.67,0,0,1,2.527.828,16.687,16.687,0,0,0,8.009,3.706v.273l-4.123,9.84a2.1,2.1,0,0,0-1.676.588,1.908,1.908,0,0,0-.528,1.4,5.3,5.3,0,0,0,2.975,5.094c.753.359,1.3,1.2,2.683,1.2h4.267C186.2,94.294,186.658,93.561,187.591,93.078Zm-39.582-1.71h0s.043.037.043.037Zm4.292,0c-.007.006-.011-.007-.01-.007-6.269-.014-3.2.258-5.71-.924a2.12,2.12,0,0,1-1.179-1.494h9.511C154.633,90.343,153.544,90.309,152.3,91.372Zm.268-5.356h-4.822l2.411-5.754Zm19.412,13.59a1.426,1.426,0,0,1-1.424,1.424h-8.2a1.424,1.424,0,1,1,0-2.848h8.2A1.426,1.426,0,0,1,171.982,99.606Zm-2.992-5.778a1.426,1.426,0,0,1-1.424,1.424h-2.341a1.424,1.424,0,0,1,0-2.848h2.341A1.425,1.425,0,0,1,168.99,93.828ZM166.4,71.577a1.646,1.646,0,1,1,1.646-1.646A1.648,1.648,0,0,1,166.4,71.577Zm16.344,8.684,2.412,5.755h-4.823Zm-2.149,11.106.041.035Zm-1-.706c-.71-.385-1.4-.7-1.6-1.715H187.5c-.283,1.409-1.426,1.409-2.612,2.426,0,0-.011-.007-.011-.007C179.344,91.352,181.2,91.608,179.587,90.661Z" transform="translate(-83.147 -50.857)"/>
        <path id="Trazado_113712" data-name="Trazado 113712" d="M216.338,303.81H188.745a1.465,1.465,0,1,0,0,2.93h27.593a1.465,1.465,0,1,0,0-2.93Z" transform="translate(-119.293 -244.472)"/>
        <path id="Trazado_113713" data-name="Trazado 113713" d="M216.338,335.31H188.745a1.465,1.465,0,1,0,0,2.93h27.593a1.465,1.465,0,1,0,0-2.93Z" transform="translate(-119.293 -269.82)"/>
        <path id="Trazado_113714" data-name="Trazado 113714" d="M216.338,366.811H188.745a1.465,1.465,0,1,0,0,2.93h27.593a1.465,1.465,0,1,0,0-2.93Z" transform="translate(-119.293 -295.168)"/>
        <path id="Trazado_113715" data-name="Trazado 113715" d="M122.321,71.154a1.465,1.465,0,0,0,1.465-1.465V4.894A4.9,4.9,0,0,0,118.891,0H47.4a8.4,8.4,0,0,0-8.362,8.287c0,4.971,0,78.617,0,83.41A8.473,8.473,0,0,0,47.4,100H93.987a1.465,1.465,0,0,0,0-2.93L47.4,97.031a5.324,5.324,0,0,1-4.318-8.525,5.445,5.445,0,0,1,4.044-2.142c.239-.012,5.779-.007,5.8-.007v6.077a2.054,2.054,0,0,0,3.153,1.733l3.335-2.119,3.285,2.087a2.086,2.086,0,0,0,3.2-1.76V86.356h47.567V97.07H100.823a1.465,1.465,0,0,0,0,2.93h17.745a5.223,5.223,0,0,0,5.217-5.217V76.525a1.465,1.465,0,1,0-2.93,0v4.62a2.285,2.285,0,0,1-1.6,2.178c-.553.172-68.6.1-69.92.1V18.3a1.465,1.465,0,0,0-2.93,0V83.485a8.375,8.375,0,0,0-4.44,1.963c.173-78.905-.575-77.652.791-79.9A5.469,5.469,0,0,1,46.4,3.023v8.445a1.465,1.465,0,1,0,2.93,0V2.93h69.559a1.967,1.967,0,0,1,1.964,1.964v64.8A1.465,1.465,0,0,0,122.321,71.154Zm-5.929,15.2c1.526-.1,2.824.281,4.464-.526v8.953a2.29,2.29,0,0,1-2.287,2.287h-2.177V86.356Zm-60.542,0h7.115v4.48c-1.931-1.124-2.406-1.8-3.557-1.8s-1.63.681-3.558,1.8C55.85,90.835,55.85,86.356,55.85,86.356Z" transform="translate(0)"/>
      </g>
    </g>
  </g>
</svg>
