<svg xmlns="http://www.w3.org/2000/svg" width="465" height="302.7" viewBox="0 0 465 302.7">
  <g id="Grupo_120989" data-name="Grupo 120989" transform="translate(7311 12105.7)">
    <rect id="Image_Place_Holder" data-name="Image Place Holder" width="465" height="302.7" transform="translate(-7311 -12105.7)" fill="#e8e8e8"/>
    <g id="gobierno" transform="translate(-7217 -12032)">
      <path id="Trazado_113650" data-name="Trazado 113650" d="M302.205,21.123h-9.082L279.5,14.312,293.123,7.5h9.082Z" transform="translate(-194.886 -5.229)" fill="#0ba1b3"/>
      <path id="Trazado_113651" data-name="Trazado 113651" d="M256,7.5h20.737V21.123H256Z" transform="translate(-178.5 -5.229)" fill="#0ec7dc"/>
      <path id="Trazado_113652" data-name="Trazado 113652" d="M97.5,247.5H211.631v68.721H97.5Z" transform="translate(-67.983 -172.573)" fill="#0ba1b3"/>
      <path id="Trazado_113653" data-name="Trazado 113653" d="M37.5,247.5H151.631v68.721H37.5Z" transform="translate(-26.147 -172.573)" fill="#0ec7dc"/>
      <path id="Trazado_113654" data-name="Trazado 113654" d="M276.737,247.5v18.164L256,279.287V247.5Z" transform="translate(-178.5 -172.573)" fill="#ffd56b"/>
      <path id="Trazado_113655" data-name="Trazado 113655" d="M187.5,247.5v18.164l32.393,18.164V247.5Z" transform="translate(-130.737 -172.573)" fill="#ffeb6b"/>
      <path id="Trazado_113656" data-name="Trazado 113656" d="M217.5,358.057h32.393V307.5h-9.082Z" transform="translate(-151.655 -214.409)" fill="#ffec80"/>
      <path id="Trazado_113657" data-name="Trazado 113657" d="M187.5,358.057h20.737l11.655-36.934V307.5H187.5Z" transform="translate(-130.737 -214.409)" fill="#fff6c2"/>
      <path id="Trazado_113658" data-name="Trazado 113658" d="M231.729,352.5,217.5,389.434h23.311V352.5Z" transform="translate(-151.655 -245.786)" fill="#d96c00"/>
      <path id="Trazado_113659" data-name="Trazado 113659" d="M217.5,352.5h14.229v36.934H217.5Z" transform="translate(-151.655 -245.786)" fill="#f87c00"/>
      <path id="Trazado_113660" data-name="Trazado 113660" d="M82.5,262.5H96.123v64.18H82.5Z" transform="translate(-57.524 -183.032)" fill="#ffd56b"/>
      <path id="Trazado_113661" data-name="Trazado 113661" d="M67.5,262.5h9.082v64.18H67.5Z" transform="translate(-47.065 -183.032)" fill="#ffeb6b"/>
      <path id="Trazado_113662" data-name="Trazado 113662" d="M399.5,262.5h13.623v64.18H399.5Z" transform="translate(-278.558 -183.032)" fill="#ffd56b"/>
      <path id="Trazado_113663" data-name="Trazado 113663" d="M384.5,262.5h9.082v64.18H384.5Z" transform="translate(-268.099 -183.032)" fill="#ffeb6b"/>
      <path id="Trazado_113664" data-name="Trazado 113664" d="M452.205,462.664h-9.082L429.5,453.582l13.623-9.082h9.082Z" transform="translate(-299.476 -309.935)" fill="#ffec80"/>
      <path id="Trazado_113665" data-name="Trazado 113665" d="M336.737,444.5,316,453.582l20.737,9.082h27.246V444.5Z" transform="translate(-220.336 -309.935)" fill="#fff6c2"/>
      <path id="Trazado_113666" data-name="Trazado 113666" d="M7.5,444.5v18.164H43.828l20.737-9.082L43.828,444.5Z" transform="translate(-5.229 -309.935)" fill="#fff6c2"/>
      <path id="Trazado_113667" data-name="Trazado 113667" d="M332.205,453.582,309.5,458.123,323.123,444.5h9.082Z" transform="translate(-215.804 -309.935)" fill="#ffec80"/>
      <path id="Trazado_113668" data-name="Trazado 113668" d="M127.5,444.5v9.082l4.541,4.541h64.18V444.5Z" transform="translate(-88.901 -309.935)" fill="#fff6c2"/>
      <path id="Trazado_113669" data-name="Trazado 113669" d="M332.205,483.582h-9.082L309.5,479.041l13.623-4.541h9.082Z" transform="translate(-215.804 -330.852)" fill="#ffb933"/>
      <path id="Trazado_113670" data-name="Trazado 113670" d="M127.5,474.5h68.721v9.082H127.5Z" transform="translate(-88.901 -330.852)" fill="#ffca66"/>
      <path id="Trazado_113671" data-name="Trazado 113671" d="M103.647,97.5,37.5,124.746l9.082,9.082H160.713l9.082-9.082Z" transform="translate(-26.147 -67.983)" fill="#fff6c2"/>
      <path id="Trazado_113672" data-name="Trazado 113672" d="M402.664,187.5,384.5,205.664h27.246V187.5Z" transform="translate(-268.099 -130.737)" fill="#ffb933"/>
      <path id="Trazado_113673" data-name="Trazado 113673" d="M37.5,187.5H160.713v18.164H37.5Z" transform="translate(-26.147 -130.737)" fill="#ffca66"/>
      <path id="Trazado_113674" data-name="Trazado 113674" d="M413.123,261.123h-9.082L399.5,247.5l22.705,4.541A9.082,9.082,0,0,1,413.123,261.123Z" transform="translate(-278.558 -172.573)" fill="#ffec80"/>
      <path id="Trazado_113675" data-name="Trazado 113675" d="M372.664,261.123h-9.082a9.082,9.082,0,0,1-9.082-9.082l13.623-4.541,13.623,4.541A9.082,9.082,0,0,1,372.664,261.123Z" transform="translate(-247.181 -172.573)" fill="#fff6c2"/>
      <path id="Trazado_113676" data-name="Trazado 113676" d="M96.123,261.123H87.041L82.5,247.5l22.705,4.541A9.082,9.082,0,0,1,96.123,261.123Z" transform="translate(-57.524 -172.573)" fill="#ffec80"/>
      <path id="Trazado_113677" data-name="Trazado 113677" d="M55.664,261.123H46.582a9.082,9.082,0,0,1-9.082-9.082L51.123,247.5l13.623,4.541A9.082,9.082,0,0,1,55.664,261.123Z" transform="translate(-26.147 -172.573)" fill="#fff6c2"/>
      <path id="Trazado_113678" data-name="Trazado 113678" d="M453.582,241.582H444.5l9.082-9.082h9.082A9.082,9.082,0,0,1,453.582,241.582Z" transform="translate(-309.935 -162.114)" fill="#ffec80"/>
      <path id="Trazado_113679" data-name="Trazado 113679" d="M139.795,241.582H16.582A9.082,9.082,0,0,1,7.5,232.5H148.877A9.082,9.082,0,0,1,139.795,241.582Z" transform="translate(-5.229 -162.114)" fill="#fff6c2"/>
      <path id="Trazado_113680" data-name="Trazado 113680" d="M152.729,132.295h-6.812V81.51A11.372,11.372,0,0,0,155,70.386a2.27,2.27,0,0,0-2.271-2.271h-6.812V56.763a2.271,2.271,0,0,0-1.406-2.1L79.771,28V18.164h27.549a2.27,2.27,0,0,0,2.271-2.271V2.271A2.27,2.27,0,0,0,107.319,0H77.5a2.27,2.27,0,0,0-2.271,2.271V28L10.488,54.663a2.271,2.271,0,0,0-1.406,2.1V68.115H2.271A2.27,2.27,0,0,0,0,70.386,11.371,11.371,0,0,0,9.082,81.51v50.785H2.271A2.27,2.27,0,0,0,0,134.565v18.164A2.27,2.27,0,0,0,2.271,155H152.729A2.27,2.27,0,0,0,155,152.729V134.565A2.27,2.27,0,0,0,152.729,132.295ZM79.771,4.541h25.278v9.082H79.771Zm57.065,127.754v-41.7a11.3,11.3,0,0,0,4.541-2.048v43.751ZM40.869,145.918h73.262v4.541H40.869Zm73.262-4.541H40.869v-4.541h73.262ZM38.6,86.279H20.435a6.823,6.823,0,0,1-6.421-4.541H45.02A6.823,6.823,0,0,1,38.6,86.279ZM22.705,90.82H36.328v41.475H22.705Zm18.164-.229a11.386,11.386,0,0,0,8.853-8.853h4.77v50.557H40.869Zm50.557,41.7V106.714a2.27,2.27,0,0,0-2.271-2.271H65.845a2.27,2.27,0,0,0-2.271,2.271v25.581H59.033V95.361H95.967v36.934Zm-4.541,0H68.115V108.984h18.77ZM95.967,90.82H59.033V81.738H95.967Zm4.541,41.475V81.738h4.77a11.386,11.386,0,0,0,8.853,8.853v41.7Zm34.058-46.016H116.4a6.823,6.823,0,0,1-6.421-4.541h31.006a6.823,6.823,0,0,1-6.421,4.541ZM118.672,90.82h13.623v41.475H118.672Zm13.5-36.328H22.827L77.5,31.972ZM4.93,72.656h6.423a2.27,2.27,0,0,0,2.271-2.271V59.033H141.377v9.082H20.435a2.271,2.271,0,0,0,0,4.541H150.07a6.824,6.824,0,0,1-6.423,4.541H11.353A6.824,6.824,0,0,1,4.93,72.656Zm8.693,15.887a11.3,11.3,0,0,0,4.541,2.048v41.7H13.623ZM4.541,136.836H36.328v13.623H4.541Zm145.918,13.623H118.672V136.836h31.787Z" transform="translate(0 0)"/>
    </g>
  </g>
</svg>
