<svg xmlns="http://www.w3.org/2000/svg" width="75" height="85.144" viewBox="0 0 75 85.144">
  <g id="documentos" transform="translate(-30.5)">
    <g id="Grupo_121019" data-name="Grupo 121019" transform="translate(31.747 1.247)">
      <path id="Trazado_218346" data-name="Trazado 218346" d="M163.831,92.5h50.055a.832.832,0,0,1,.831.831v66.851a.832.832,0,0,1-.831.831H163.831a.832.832,0,0,1-.831-.831V93.331A.832.832,0,0,1,163.831,92.5Z" transform="translate(-142.213 -78.365)" fill="#f6f6f6"/>
      <path id="Trazado_218347" data-name="Trazado 218347" d="M210.977,92.5v63.941a.832.832,0,0,1-.831.831H163V93.331a.832.832,0,0,1,.831-.831Z" transform="translate(-142.213 -78.365)" fill="#e8e8e8"/>
      <path id="Trazado_218348" data-name="Trazado 218348" d="M171.387,50H121.331a.832.832,0,0,0-.831.831v66.851a.832.832,0,0,0,.831.831h50.055a.832.832,0,0,0,.831-.831V50.831A.832.832,0,0,0,171.387,50Z" transform="translate(-106.78 -42.932)" fill="#f6f6f6"/>
      <path id="Trazado_218349" data-name="Trazado 218349" d="M168.477,50v63.941a.832.832,0,0,1-.831.831H120.5V50.831a.832.832,0,0,1,.831-.831Z" transform="translate(-106.78 -42.932)" fill="#e8e8e8"/>
      <path id="Trazado_218350" data-name="Trazado 218350" d="M96.37,8.331V75.183a.832.832,0,0,1-.831.831H46.315A8.316,8.316,0,0,1,38,67.7V65.538a.832.832,0,0,1,.831-.831H43.82a.161.161,0,0,0,.028,0,.83.83,0,0,0,.8-.83V8.331a.832.832,0,0,1,.831-.831H95.539A.832.832,0,0,1,96.37,8.331Z" transform="translate(-38 -7.5)" fill="#fff"/>
      <path id="Trazado_218351" data-name="Trazado 218351" d="M128.133,72.465h-14.3a.832.832,0,0,1-.831-.831v-14.3a.832.832,0,0,1,.831-.831h14.3a.832.832,0,0,1,.831.831v14.3A.832.832,0,0,1,128.133,72.465Z" transform="translate(-100.528 -48.351)" fill="#26c7db"/>
      <g id="Grupo_121018" data-name="Grupo 121018" transform="translate(0 9.063)">
        <path id="Trazado_218352" data-name="Trazado 218352" d="M256.04,134.494H237.747a1.247,1.247,0,0,1,0-2.494H256.04a1.247,1.247,0,0,1,0,2.494Z" transform="translate(-203.49 -120.359)" fill="#2b597f"/>
        <path id="Trazado_218353" data-name="Trazado 218353" d="M190.206,202.494H171.747a1.247,1.247,0,1,1,0-2.494h18.459a1.247,1.247,0,1,1,0,2.494Z" transform="translate(-148.466 -177.051)" fill="#2b597f"/>
        <path id="Trazado_218354" data-name="Trazado 218354" d="M256.04,99.494H237.747a1.247,1.247,0,0,1,0-2.494H256.04a1.247,1.247,0,0,1,0,2.494Z" transform="translate(-203.49 -91.18)" fill="#2b597f"/>
        <path id="Trazado_218355" data-name="Trazado 218355" d="M256.04,64.494H237.747a1.247,1.247,0,0,1,0-2.494H256.04a1.247,1.247,0,0,1,0,2.494Z" transform="translate(-203.49 -62)" fill="#2b597f"/>
        <path id="Trazado_218356" data-name="Trazado 218356" d="M146.825,291.494H106.747a1.247,1.247,0,0,1,0-2.494h40.078a1.247,1.247,0,0,1,0,2.494Z" transform="translate(-94.275 -251.251)" fill="#2b597f"/>
        <path id="Trazado_218357" data-name="Trazado 218357" d="M238.532,246.494H216.747a1.247,1.247,0,0,1,0-2.494h21.785a1.247,1.247,0,0,1,0,2.494Z" transform="translate(-185.982 -213.734)" fill="#2b597f"/>
        <path id="Trazado_218358" data-name="Trazado 218358" d="M118.8,246.494H106.247a1.247,1.247,0,1,1,0-2.494H118.8a1.247,1.247,0,1,1,0,2.494Z" transform="translate(-93.858 -213.734)" fill="#2b597f"/>
        <path id="Trazado_218359" data-name="Trazado 218359" d="M88.185,362.8H46.315A8.315,8.315,0,0,1,38,354.485v-2.162a.832.832,0,0,1,.831-.831H43.82a.163.163,0,0,0,.028,0H79.122a.832.832,0,0,1,.831.831v2.164A8.316,8.316,0,0,0,88.185,362.8Z" transform="translate(-38 -303.349)" fill="#ffd18c"/>
      </g>
    </g>
    <g id="Grupo_121020" data-name="Grupo 121020" transform="translate(30.5)">
      <path id="Trazado_218360" data-name="Trazado 218360" d="M104.253,14.135h-5.82V8.315a1.247,1.247,0,0,0-1.247-1.247h-5.82V1.247A1.247,1.247,0,0,0,90.118,0H38.4a1.247,1.247,0,0,0-1.247,1.247V57.206h-5.4A1.247,1.247,0,0,0,30.5,58.453v2.993a9.573,9.573,0,0,0,9.562,9.562H44.22v5.82a1.247,1.247,0,0,0,1.247,1.247h5.82V83.9a1.247,1.247,0,0,0,1.247,1.247H77.562a1.247,1.247,0,1,0,0-2.494H53.782V78.076h43.4a1.247,1.247,0,0,0,1.247-1.247V57.206a1.247,1.247,0,1,0-2.494,0V75.582H46.714V71.009h43.4a1.247,1.247,0,0,0,1.247-1.247V9.562h4.573v41.99a1.247,1.247,0,0,0,2.494,0V16.63h4.573V82.65H83.216a1.247,1.247,0,0,0,0,2.494h21.037A1.247,1.247,0,0,0,105.5,83.9V15.382A1.247,1.247,0,0,0,104.253,14.135ZM88.87,68.514h-6.9A7.076,7.076,0,0,1,74.9,61.447V58.453a1.247,1.247,0,0,0-1.247-1.247H65.007a1.247,1.247,0,1,0,0,2.494h7.4v1.746a9.539,9.539,0,0,0,3.128,7.068H40.062a7.076,7.076,0,0,1-7.068-7.068V59.7H59.186a1.247,1.247,0,0,0,0-2.494H39.646V2.494H88.87Z" transform="translate(-30.5)"/>
      <path id="Trazado_218361" data-name="Trazado 218361" d="M106.747,67.459h15.965a1.247,1.247,0,0,0,1.247-1.247V50.247A1.247,1.247,0,0,0,122.712,49H106.747a1.247,1.247,0,0,0-1.247,1.247V66.212A1.247,1.247,0,0,0,106.747,67.459Zm1.247-15.965h13.47v13.47h-13.47Z" transform="translate(-93.028 -40.851)"/>
      <path id="Trazado_218362" data-name="Trazado 218362" d="M256.04,132H237.747a1.247,1.247,0,0,0,0,2.494H256.04a1.247,1.247,0,0,0,0-2.494Z" transform="translate(-202.243 -110.049)"/>
      <path id="Trazado_218363" data-name="Trazado 218363" d="M170.5,201.247a1.247,1.247,0,0,0,1.247,1.247h18.459a1.247,1.247,0,1,0,0-2.494H171.747A1.247,1.247,0,0,0,170.5,201.247Z" transform="translate(-147.218 -166.741)"/>
      <path id="Trazado_218364" data-name="Trazado 218364" d="M256.04,97H237.747a1.247,1.247,0,0,0,0,2.494H256.04a1.247,1.247,0,0,0,0-2.494Z" transform="translate(-202.243 -80.869)"/>
      <path id="Trazado_218365" data-name="Trazado 218365" d="M256.04,62H237.747a1.247,1.247,0,0,0,0,2.494H256.04a1.247,1.247,0,0,0,0-2.494Z" transform="translate(-202.243 -51.69)"/>
      <path id="Trazado_218366" data-name="Trazado 218366" d="M146.825,289H106.747a1.247,1.247,0,0,0,0,2.494h40.078a1.247,1.247,0,0,0,0-2.494Z" transform="translate(-93.028 -240.94)"/>
      <path id="Trazado_218367" data-name="Trazado 218367" d="M238.532,244H216.747a1.247,1.247,0,0,0,0,2.494h21.785a1.247,1.247,0,0,0,0-2.494Z" transform="translate(-184.735 -203.424)"/>
      <path id="Trazado_218368" data-name="Trazado 218368" d="M106.247,246.494H118.8a1.247,1.247,0,1,0,0-2.494H106.247a1.247,1.247,0,1,0,0,2.494Z" transform="translate(-92.611 -203.424)"/>
    </g>
  </g>
</svg>
